<?xml version="1.0" encoding="UTF-8"?>
<!DOCTYPE svg PUBLIC "-//W3C//DTD SVG 1.1//EN" "http://www.w3.org/Graphics/SVG/1.1/DTD/svg11.dtd">
<!-- Creator: CorelDRAW -->
<svg xmlns="http://www.w3.org/2000/svg" xml:space="preserve" width="100mm" height="99.9996mm" version="1.1" style="shape-rendering:geometricPrecision; text-rendering:geometricPrecision; image-rendering:optimizeQuality; fill-rule:evenodd; clip-rule:evenodd"
viewBox="0 0 774.69 774.68"
 xmlns:xlink="http://www.w3.org/1999/xlink"
 xmlns:xodm="http://www.corel.com/coreldraw/odm/2003">
 <defs>
  <style type="text/css">
   <![CDATA[
    .fil0 {fill:none;fill-rule:nonzero}
    .fil1 {fill:#31363F}
    .fil3 {fill:#31363F;fill-rule:nonzero}
    .fil2 {fill:#76ABAE;fill-rule:nonzero}
   ]]>
  </style>
 </defs>
 <g id="Capa_x0020_1">
  <metadata id="CorelCorpID_0Corel-Layer"/>
  <path class="fil0" d="M116.2 0l542.28 0c63.91,0 116.2,52.29 116.2,116.2l0 542.28c0,63.91 -52.29,116.2 -116.2,116.2l-542.28 0c-63.91,0 -116.2,-52.29 -116.2,-116.2l0 -542.28c0,-63.91 52.29,-116.2 116.2,-116.2z"/>
  <g id="_105553152374720">
   <path class="fil1" d="M445.53 421.03l125.52 -182.5c7.95,-11.55 17.68,-16.45 31.68,-16.45 32.3,0 49.98,30.47 30.47,58.5l-112.12 164.53c-4.28,6.09 -6.71,13.4 -6.71,20.71l0 150.51c0,24.99 -17.06,37.79 -37.79,37.79 -20.11,0 -37.77,-12.8 -37.77,-37.79l0 -174.59c0,-7.31 2.43,-14.63 6.71,-20.71z"/>
   <path class="fil2" d="M286.21 287.64l83.46 121.6c1.18,1.74 2.43,3.26 3.94,4.82 14.16,14.57 37.61,14.75 52.39,0.39 14.77,-14.35 15.27,-37.8 1.11,-52.38 -1.47,-1.52 -3.05,-2.88 -4.7,-4.08l-119.07 -86.86c-4.81,-3.1 -11.17,-2.7 -15.31,1.33 -4.14,4.03 -4.78,10.29 -1.82,15.18z"/>
   <path class="fil3" d="M511.79 216.32c-32.21,-21.19 -70.77,-33.51 -112.21,-33.51 -112.93,0 -204.47,91.55 -204.47,204.47 0,104.99 79.13,191.5 181,203.14 18.24,2.83 32.19,18.41 32.19,37.2 0,20.8 -17.09,37.66 -38.18,37.66 -1.73,0 -3.46,0.02 -5.13,-0.21 -138.27,-17.04 -245.33,-134.91 -245.33,-277.79 0,-154.59 125.32,-279.91 279.91,-279.91 54.05,0 104.53,15.32 147.32,41.86 11.18,6.59 18.69,18.76 18.69,32.68 0,20.93 -16.97,37.9 -37.9,37.9 -5.68,0 -11.06,-1.25 -15.9,-3.49z"/>
  </g>
 </g>
</svg>
