<?xml version="1.0" encoding="UTF-8"?>
<!DOCTYPE svg PUBLIC "-//W3C//DTD SVG 1.1//EN" "http://www.w3.org/Graphics/SVG/1.1/DTD/svg11.dtd">
<!-- Creator: CorelDRAW -->
<svg xmlns="http://www.w3.org/2000/svg" xml:space="preserve" width="100mm" height="99.9996mm" version="1.1" style="shape-rendering:geometricPrecision; text-rendering:geometricPrecision; image-rendering:optimizeQuality; fill-rule:evenodd; clip-rule:evenodd"
viewBox="0 0 988.01 988"
 xmlns:xlink="http://www.w3.org/1999/xlink"
 xmlns:xodm="http://www.corel.com/coreldraw/odm/2003">
 <defs>
  <style type="text/css">
   <![CDATA[
    .fil0 {fill:none;fill-rule:nonzero}
    .fil1 {fill:#EEEEEE}
    .fil2 {fill:#76ABAE;fill-rule:nonzero}
    .fil3 {fill:#EEEEEE;fill-rule:nonzero}
   ]]>
  </style>
 </defs>
 <g id="Capa_x0020_1">
  <metadata id="CorelCorpID_0Corel-Layer"/>
  <path class="fil0" d="M148.2 0l691.6 0c81.51,0 148.2,66.69 148.2,148.2l0 691.61c0,81.51 -66.69,148.2 -148.2,148.2l-691.6 0c-81.51,0 -148.2,-66.69 -148.2,-148.2l0 -691.61c0,-81.51 66.69,-148.2 148.2,-148.2z"/>
  <g id="_105553152424288">
   <path class="fil1" d="M582.2 541.75l177.4 -257.92c11.23,-16.33 24.98,-23.25 44.78,-23.25 45.65,0 70.63,43.07 43.07,82.67l-158.45 232.53c-6.04,8.6 -9.48,18.94 -9.48,29.27l0 212.71c0,35.32 -24.11,53.4 -53.4,53.4 -28.42,0 -53.38,-18.09 -53.38,-53.4l0 -246.74c0,-10.34 3.44,-20.67 9.48,-29.28z"/>
   <path class="fil2" d="M357.04 353.24l117.95 171.85c1.66,2.46 3.44,4.61 5.57,6.81 20.01,20.59 53.16,20.84 74.04,0.55 20.88,-20.29 21.58,-53.43 1.57,-74.02 -2.08,-2.14 -4.31,-4.07 -6.65,-5.77l-168.27 -122.76c-6.79,-4.38 -15.78,-3.81 -21.64,1.88 -5.86,5.69 -6.76,14.54 -2.57,21.46z"/>
   <path class="fil3" d="M675.85 252.44c-45.53,-29.94 -100.02,-47.36 -158.58,-47.36 -159.6,0 -288.98,129.38 -288.98,288.98 0,148.38 111.83,270.64 255.81,287.09 25.78,4 45.5,26.02 45.5,52.57 0,29.4 -24.16,53.22 -53.96,53.22 -2.45,0 -4.89,0.02 -7.25,-0.29 -195.42,-24.08 -346.72,-190.67 -346.72,-392.6 0,-218.48 177.11,-395.59 395.59,-395.59 76.39,0 147.73,21.65 208.2,59.16 15.81,9.31 26.41,26.51 26.41,46.18 0,29.58 -23.98,53.56 -53.56,53.56 -8.02,0 -15.64,-1.76 -22.47,-4.93z"/>
  </g>
 </g>
</svg>
