<?xml version="1.0" encoding="UTF-8"?>
<!DOCTYPE svg PUBLIC "-//W3C//DTD SVG 1.1//EN" "http://www.w3.org/Graphics/SVG/1.1/DTD/svg11.dtd">
<!-- Creator: CorelDRAW -->
<svg xmlns="http://www.w3.org/2000/svg" xml:space="preserve" width="188.057mm" height="48.5586mm" version="1.1" style="shape-rendering:geometricPrecision; text-rendering:geometricPrecision; image-rendering:optimizeQuality; fill-rule:evenodd; clip-rule:evenodd"
viewBox="0 0 5286.95 1365.15"
 xmlns:xlink="http://www.w3.org/1999/xlink"
 xmlns:xodm="http://www.corel.com/coreldraw/odm/2003">
 <defs>
  <style type="text/css">
   <![CDATA[
    .str0 {stroke:#76ABAE;stroke-width:2.14;stroke-miterlimit:22.9256}
    .fil1 {fill:white}
    .fil0 {fill:white;fill-rule:nonzero}
    .fil2 {fill:#76ABAE;fill-rule:nonzero}
   ]]>
  </style>
 </defs>
 <g id="Capa_x0020_1">
  <metadata id="CorelCorpID_0Corel-Layer"/>
  <path class="fil0" d="M5205.73 560.68l-53.7 0c-176.97,0 -338,101.54 -338,329.33l0 355.41c0,59.49 37.69,89.96 87.05,89.96 47.87,0 85.57,-30.47 85.57,-89.96l0 -339.47c0,-123.3 75.46,-175.53 165.38,-175.53l53.7 0c53.66,0 81.22,-40.61 81.22,-85.61 0,-44.96 -27.55,-84.13 -81.22,-84.13zm-880.59 -13.06c-205.99,0 -396.05,129.13 -396.05,394.62 0,216.13 150.89,380.08 385.91,380.08l66.72 0c55.14,0 82.69,-39.17 82.69,-84.13 0,-45 -27.56,-85.61 -82.69,-85.61l-66.72 0c-132.04,0 -207.47,-85.61 -207.47,-210.35 0,-150.89 100.1,-224.88 208.91,-224.88 105.9,0 206,75.43 206,223.4l0 304.66c0,59.49 37.73,89.96 87.05,89.96 47.87,0 85.6,-30.47 85.6,-89.96l0 -320.59c0,-243.72 -156.68,-377.2 -369.94,-377.2zm-562.91 491.8c-76.87,4.35 -146.51,120.42 -285.77,120.42 -420.72,0 -420.72,-678.95 0,-678.95 139.27,0 208.91,117.51 285.77,121.86 52.22,2.88 97.22,-33.38 92.87,-94.31 -4.35,-76.87 -163.95,-201.64 -378.64,-201.64 -291.6,0 -503.42,230.67 -503.42,513.56 0,284.34 211.82,515 503.42,515 214.7,0 374.29,-124.78 378.64,-201.64 4.35,-62.4 -40.65,-97.22 -92.87,-94.31z"/>
  <path class="fil0" d="M1713.84 1113.41c-33.38,29.03 -121.86,52.23 -185.7,52.23 -63.81,0 -113.16,-20.33 -149.42,-53.67 -5.79,-5.83 -4.35,-15.97 4.35,-18.88l336.56 -105.89c84.17,-27.55 129.13,-66.72 129.13,-158.12 0,-179.92 -163.94,-281.46 -335.12,-281.46 -187.15,0 -383,121.86 -383,393.14 0,197.33 133.48,394.61 397.49,394.61 158.15,0 335.12,-63.84 335.12,-158.12 0,-53.7 -42.09,-87.04 -87.05,-87.04 -21.76,0 -43.52,7.23 -62.37,23.2zm-406.2 -168.3c-4.35,-159.56 107.33,-235.02 206,-235.02 78.34,0 149.41,47.87 145.06,136.39l-340.91 107.33c-4.35,1.48 -10.14,-2.88 -10.14,-8.7zm745.64 -397.49c-47.87,0 -85.57,30.46 -85.57,89.96l0 607.84c0,59.49 37.7,89.96 85.57,89.96 49.34,0 87.04,-30.47 87.04,-89.96l0 -607.84c0,-59.49 -37.7,-89.96 -87.04,-89.96zm232.14 89.96l-0 607.84c0,59.49 37.7,89.96 87.05,89.96 47.87,0 85.57,-30.47 85.57,-89.96l0 -126.21c0,-5.79 2.91,-10.14 7.26,-11.58 23.2,-14.53 46.44,-29.03 69.63,-46.44 4.35,-2.92 10.15,-2.92 13.06,1.44l213.26 242.28c18.85,21.76 42.08,30.47 63.84,30.47 76.87,0 117.48,-85.6 66.72,-143.62l-216.17 -246.64c-2.88,-4.35 -2.88,-10.15 0,-14.5 76.9,-84.14 139.27,-182.8 171.21,-274.19 21.76,-63.81 -29.03,-108.81 -79.82,-108.81 -30.46,0 -60.93,17.41 -73.99,55.14 -34.82,100.1 -118.95,213.26 -213.26,294.48 -8.7,7.26 -21.76,1.47 -21.76,-10.15l0 -249.52c0,-59.49 -37.7,-89.96 -87.04,-89.96 -47.87,0 -85.57,30.46 -85.57,89.96z"/>
  <g id="_105553151919648">
   <path class="fil1 str0" d="M797.33 767.49l307.14 -446.55c19.44,-28.27 43.25,-40.26 77.53,-40.26 79.04,0 122.29,74.56 74.56,143.14l-274.34 402.59c-10.46,14.9 -16.41,32.79 -16.41,50.68l0 368.28c0,61.14 -41.74,92.46 -92.46,92.46 -49.21,0 -92.42,-31.32 -92.42,-92.46l0 -427.2c0,-17.9 5.96,-35.79 16.41,-50.69z"/>
   <path class="fil2" d="M407.5 441.1l204.22 297.54c2.88,4.25 5.95,7.98 9.65,11.79 34.64,35.65 92.04,36.08 128.19,0.95 36.15,-35.12 37.37,-92.5 2.72,-128.16 -3.61,-3.71 -7.46,-7.04 -11.51,-9.99l-291.34 -212.54c-11.76,-7.59 -27.33,-6.6 -37.47,3.26 -10.14,9.85 -11.7,25.17 -4.46,37.15z"/>
   <path class="fil0" d="M959.48 266.59c-78.82,-51.84 -173.17,-82 -274.57,-82 -276.32,0 -500.33,224 -500.33,500.33 0,256.9 193.62,468.58 442.9,497.06 44.64,6.93 78.78,45.05 78.78,91.03 0,50.89 -41.82,92.15 -93.42,92.15 -4.25,0 -8.46,0.04 -12.55,-0.5 -338.34,-41.68 -600.3,-330.12 -600.3,-679.73 0,-378.27 306.65,-684.91 684.91,-684.91 132.26,0 255.77,37.49 360.47,102.42 27.37,16.12 45.73,45.9 45.73,79.96 0,51.22 -41.52,92.74 -92.74,92.74 -13.89,0 -27.07,-3.05 -38.9,-8.53z"/>
  </g>
 </g>
</svg>
