<?xml version="1.0" encoding="UTF-8"?>
<!DOCTYPE svg PUBLIC "-//W3C//DTD SVG 1.1//EN" "http://www.w3.org/Graphics/SVG/1.1/DTD/svg11.dtd">
<!-- Creator: CorelDRAW -->
<svg xmlns="http://www.w3.org/2000/svg" xml:space="preserve" width="188.057mm" height="48.5586mm" version="1.1" style="shape-rendering:geometricPrecision; text-rendering:geometricPrecision; image-rendering:optimizeQuality; fill-rule:evenodd; clip-rule:evenodd"
viewBox="0 0 5313 1371.88"
 xmlns:xlink="http://www.w3.org/1999/xlink"
 xmlns:xodm="http://www.corel.com/coreldraw/odm/2003">
 <defs>
  <style type="text/css">
   <![CDATA[
    .fil1 {fill:#222831}
    .fil0 {fill:#222831;fill-rule:nonzero}
    .fil2 {fill:#76ABAE;fill-rule:nonzero}
   ]]>
  </style>
 </defs>
 <g id="Capa_x0020_1">
  <metadata id="CorelCorpID_0Corel-Layer"/>
  <path class="fil0" d="M5231.38 563.44l-53.97 0c-177.84,0 -339.66,102.04 -339.66,330.96l0 357.16c0,59.78 37.88,90.4 87.47,90.4 48.11,0 85.99,-30.62 85.99,-90.4l0 -341.15c0,-123.91 75.83,-176.39 166.2,-176.39l53.97 0c53.93,0 81.62,-40.81 81.62,-86.03 0,-45.18 -27.69,-84.55 -81.62,-84.55zm-884.93 -13.12c-207.01,0 -398,129.76 -398,396.56 0,217.2 151.63,381.96 387.81,381.96l67.05 0c55.41,0 83.1,-39.36 83.1,-84.55 0,-45.22 -27.69,-86.03 -83.1,-86.03l-67.05 0c-132.69,0 -208.49,-86.03 -208.49,-211.38 0,-151.63 100.6,-225.99 209.94,-225.99 106.42,0 207.01,75.8 207.01,224.5l0 306.16c0,59.78 37.91,90.4 87.47,90.4 48.11,0 86.02,-30.62 86.02,-90.4l0 -322.17c0,-244.93 -157.45,-379.06 -371.76,-379.06zm-565.68 494.22c-77.25,4.37 -147.23,121.02 -287.18,121.02 -422.8,0 -422.8,-682.29 0,-682.29 139.96,0 209.94,118.09 287.18,122.46 52.48,2.89 97.7,-33.54 93.33,-94.77 -4.38,-77.24 -164.75,-202.64 -380.51,-202.64 -293.04,0 -505.9,231.81 -505.9,516.09 0,285.74 212.87,517.54 505.9,517.54 215.76,0 376.13,-125.39 380.51,-202.64 4.37,-62.71 -40.85,-97.7 -93.33,-94.77z"/>
  <path class="fil0" d="M1722.28 1118.9c-33.54,29.17 -122.46,52.49 -186.62,52.49 -64.13,0 -113.72,-20.43 -150.15,-53.93 -5.82,-5.86 -4.37,-16.05 4.38,-18.98l338.21 -106.41c84.58,-27.69 129.77,-67.05 129.77,-158.9 0,-180.8 -164.75,-282.84 -336.77,-282.84 -188.07,0 -384.89,122.46 -384.89,395.08 0,198.3 134.14,396.56 399.45,396.56 158.93,0 336.77,-64.16 336.77,-158.9 0,-53.96 -42.29,-87.47 -87.48,-87.47 -21.87,0 -43.73,7.26 -62.68,23.31zm-408.2 -169.13c-4.37,-160.34 107.86,-236.18 207.01,-236.18 78.72,0 150.15,48.11 145.77,137.06l-342.59 107.86c-4.38,1.48 -10.19,-2.89 -10.19,-8.74zm749.31 -399.45c-48.11,0 -85.99,30.61 -85.99,90.4l0 610.83c0,59.78 37.88,90.4 85.99,90.4 49.59,0 87.47,-30.62 87.47,-90.4l0 -610.83c0,-59.79 -37.88,-90.4 -87.47,-90.4zm233.29 90.4l-0 610.83c0,59.78 37.88,90.4 87.47,90.4 48.11,0 85.99,-30.62 85.99,-90.4l0 -126.83c0,-5.82 2.93,-10.19 7.3,-11.64 23.32,-14.6 46.67,-29.17 69.98,-46.66 4.37,-2.93 10.2,-2.93 13.12,1.45l214.31 243.48c18.94,21.87 42.29,30.62 64.16,30.62 77.24,0 118.05,-86.02 67.05,-144.33l-217.24 -247.85c-2.9,-4.38 -2.9,-10.2 0,-14.57 77.28,-84.55 139.96,-183.7 172.06,-275.55 21.86,-64.12 -29.17,-109.34 -80.21,-109.34 -30.61,0 -61.23,17.5 -74.35,55.41 -34.99,100.59 -119.53,214.31 -214.31,295.93 -8.74,7.3 -21.87,1.48 -21.87,-10.2l0 -250.75c0,-59.79 -37.88,-90.4 -87.47,-90.4 -48.11,0 -85.99,30.61 -85.99,90.4z"/>
  <g id="_105553152066464">
   <path class="fil1" d="M801.26 771.27l308.65 -448.75c19.54,-28.41 43.47,-40.46 77.91,-40.46 79.43,0 122.89,74.93 74.93,143.85l-275.69 404.58c-10.51,14.97 -16.49,32.95 -16.49,50.93l0 370.09c0,61.45 -41.95,92.92 -92.92,92.92 -49.45,0 -92.88,-31.47 -92.88,-92.92l0 -429.3c0,-17.99 5.99,-35.96 16.49,-50.94z"/>
   <path class="fil2" d="M409.51 443.27l205.22 299.01c2.9,4.27 5.98,8.02 9.7,11.85 34.82,35.83 92.49,36.26 128.82,0.96 36.33,-35.3 37.55,-92.96 2.74,-128.79 -3.62,-3.73 -7.5,-7.08 -11.57,-10.04l-292.78 -213.59c-11.82,-7.63 -27.46,-6.63 -37.66,3.27 -10.19,9.9 -11.76,25.3 -4.48,37.33z"/>
   <path class="fil0" d="M964.21 267.91c-79.21,-52.1 -174.03,-82.41 -275.92,-82.41 -277.68,0 -502.79,225.11 -502.79,502.79 0,258.17 194.58,470.89 445.08,499.51 44.86,6.96 79.17,45.27 79.17,91.47 0,51.14 -42.03,92.6 -93.88,92.6 -4.27,0 -8.5,0.04 -12.61,-0.51 -340.01,-41.89 -603.25,-331.74 -603.25,-683.08 0,-380.13 308.16,-688.29 688.29,-688.29 132.91,0 257.03,37.68 362.25,102.93 27.5,16.2 45.96,46.12 45.96,80.35 0,51.47 -41.73,93.19 -93.2,93.19 -13.96,0 -27.2,-3.07 -39.09,-8.57z"/>
  </g>
 </g>
</svg>
